<svg width="20" height="20" viewBox="0 0 20 20" fill="none" xmlns="http://www.w3.org/2000/svg">
<path d="M19.8459 19.1021L15.6258 14.8818C17.0321 13.3007 17.8953 11.2259 17.8953 8.94784C17.8953 4.0139 13.8815 0 8.94766 0C4.01381 0 0 4.0139 0 8.94784C0 13.8818 4.01381 17.8957 8.94766 17.8957C11.2256 17.8957 13.3005 17.0325 14.8816 15.6261L19.1017 19.8463C19.2048 19.9495 19.3396 20 19.4743 20C19.609 20 19.7438 19.9484 19.847 19.8463C20.0512 19.641 20.0512 19.3084 19.8459 19.1021ZM1.05164 8.94784C1.05164 4.59498 4.5928 1.05269 8.94663 1.05269C13.3005 1.05269 16.8416 4.59498 16.8416 8.94784C16.8416 13.3007 13.3005 16.843 8.94663 16.843C4.5928 16.843 1.05164 13.3007 1.05164 8.94784Z" fill="#25314C"/>
</svg>
